<?xml version="1.0" encoding="UTF-8"?>
<svg id="Layer_2" data-name="Layer 2" xmlns="http://www.w3.org/2000/svg" viewBox="0 0 234.01 217.25">
  <defs>
    <style>
      .cls-1 {
        fill: #1c1e26;
      }

      .cls-1, .cls-2 {
        stroke-width: 0px;
      }

      .cls-3 {
        fill: none;
        stroke: #1c1e26;
        stroke-miterlimit: 10;
        stroke-width: .25px;
      }

      .cls-2 {
        fill: #3a7afe;
      }
    </style>
  </defs>
  <g id="Layer_1-2" data-name="Layer 1">
    <path class="cls-3" d="M.22,117.95v-58.7l99.06,70.32c5.5-3.77,11.01-7.54,16.51-11.31.2-39.34.41-78.68.61-118.01l-58.09,41.27v175.49l58.09-41.89v-34.55l117.4-81.94-60.54-41.89c-38.32,27.82-76.64,55.64-114.96,83.46,13.66,9.78,27.31,19.57,40.97,29.35-13.66,9.68-27.31,19.36-40.97,29.04-19.36-13.55-38.73-27.11-58.09-40.66Z"/>
    <path class="cls-3" d="M174.48,54.05c19.77,13.76,39.54,27.52,59.31,41.27l-59.31,41.27-56.25-41.27,23.85-19.26,33.02,23.54c-.09-19.63-.17-39.27-.26-58.9C155.35,27.22,135.87,13.73,116.39.24l-.3,58.02,25.98,17.81c10.8-7.34,21.6-14.68,32.41-22.01Z"/>
    <path class="cls-3" d="M.22,59.25c19.57-14.06,39.13-28.13,58.7-42.19,19.06,13.73,38.12,27.47,57.18,41.2l.3,116.86c-5.56,4.01-11.12,8.02-16.68,12.03,5.76,4.14,11.53,8.29,17.29,12.43l57.94-41.58c-19.72-13.25-39.44-26.5-59.16-39.75-5.5,3.77-11.01,7.54-16.51,11.31L.22,59.25Z"/>
    <circle class="cls-2" cx="58.69" cy="17.06" r="4.05"/>
    <circle class="cls-2" cx="149.96" cy="117.36" r="7.5"/>
    <circle class="cls-1" cx="58.69" cy="99.91" r="4.05"/>
    <path class="cls-2" d="M116.39,175.12c-19.36,13.96-38.73,27.92-58.09,41.89v-58.39c19.26-13.75,38.53-27.5,57.79-41.25l.3,57.76Z"/>
    <circle class="cls-1" cx="116.09" cy="117.36" r="4.05"/>
  </g>
</svg>