<svg width="150" height="38" viewBox="0 0 150 38" fill="none" xmlns="http://www.w3.org/2000/svg">
<path d="M11.8631 3.91952C10.4104 2.19588 9.15939 0.445304 8.90382 0.0817224C8.87691 0.0547904 8.83654 0.0547904 8.80965 0.0817224C8.55407 0.445304 7.30309 2.19588 5.85033 3.91952C-6.61912 19.8228 7.81425 30.5552 7.81425 30.5552L7.93531 30.636C8.04291 32.2923 8.31194 34.6758 8.31194 34.6758H8.85H9.38806C9.38806 34.6758 9.65709 32.3057 9.7647 30.636L9.88576 30.5417C9.8992 30.5552 24.3326 19.8228 11.8631 3.91952ZM8.85 30.3128C8.85 30.3128 8.20434 29.7607 8.02947 29.478V29.4509L8.80965 12.1338C8.80965 12.0799 8.89036 12.0799 8.89036 12.1338L9.67053 29.4509V29.478C9.49567 29.7607 8.85 30.3128 8.85 30.3128Z" fill="#07072C"/>
<path d="M35.8619 26.779L29.8473 12.0891L29.8339 12.0485H25.1544V13.036H25.9095C26.1388 13.036 26.3545 13.1306 26.5164 13.293C26.6782 13.4553 26.7591 13.6718 26.7591 13.9017L26.6243 28.6863C26.6243 29.1461 26.2468 29.5248 25.7882 29.5384L25.0195 29.5519V30.5258H29.5777V29.5519L29.1056 29.5384C28.6472 29.5248 28.2695 29.1461 28.2695 28.6863V14.7538L34.8236 30.5258C34.9179 30.7557 35.1336 30.9045 35.3765 30.9045C35.6192 30.9045 35.8349 30.7557 35.9294 30.5258L42.335 15.1055L42.4294 28.6863C42.4294 29.1597 42.0518 29.5384 41.5798 29.5519H41.0943V30.5258H46.4346V29.5519H45.7063C45.2479 29.5519 44.8702 29.1597 44.8567 28.6997L44.8163 13.9151C44.8163 13.4418 45.1939 13.063 45.6525 13.0495L46.4346 13.036V12.0485H41.8764L35.8619 26.779Z" fill="#07072C"/>
<path d="M77.7989 29.2945C77.6501 29.1456 77.569 28.9423 77.569 28.6984V21.4356C77.569 20.0536 77.1635 18.9695 76.3521 18.1972C75.5545 17.4248 74.4458 17.0319 73.0667 17.0319C71.1332 17.0319 69.6054 17.8178 68.5372 19.3625C68.5238 19.3896 68.4832 19.4032 68.4427 19.4032C68.402 19.4032 68.3751 19.376 68.3751 19.3355L67.8747 17.3977H67.0364L64.8867 18.6308V19.3082H65.4411C65.6979 19.3082 65.9142 19.376 66.0631 19.5116C66.2118 19.6471 66.2928 19.8504 66.2928 20.1348V28.6848C66.2928 28.9287 66.2118 29.132 66.0631 29.2811C65.9142 29.43 65.7115 29.5114 65.4682 29.5114H64.9273V30.5005H69.8758V29.5114H69.335C69.0916 29.5114 68.8888 29.43 68.7401 29.2811C68.5914 29.132 68.5102 28.9287 68.5102 28.6848V23.021C68.5102 22.3029 68.6725 21.5847 68.97 20.88C69.2808 20.1891 69.7405 19.6064 70.349 19.1593C70.9574 18.7121 71.6875 18.4953 72.5258 18.4953C73.4723 18.4953 74.1889 18.7933 74.635 19.3896C75.0812 19.9859 75.3111 20.7581 75.3111 21.6795V28.6713C75.3111 28.9151 75.2299 29.1184 75.0812 29.2675C74.9325 29.4166 74.7297 29.4978 74.4863 29.4978H73.9456V30.4869H78.894V29.4978H78.3533C78.1504 29.525 77.9611 29.4436 77.7989 29.2945Z" fill="#07072C"/>
<path d="M123.008 13.1545C121.641 12.4262 120.112 12.0485 118.462 12.0485H112.025V13.0332H112.656C112.897 13.0332 113.112 13.1276 113.326 13.3434C113.527 13.5457 113.635 13.7751 113.635 14.0178V28.5312C113.635 28.7739 113.527 29.0033 113.326 29.2056C113.125 29.4079 112.897 29.5158 112.656 29.5158H112.025V30.5005H118.462C120.112 30.5005 121.641 30.1228 123.008 29.3944C124.376 28.6661 125.489 27.587 126.294 26.2113C127.099 24.8355 127.514 23.1764 127.514 21.288C127.514 19.3997 127.099 17.7541 126.294 16.3648C125.476 14.962 124.376 13.8964 123.008 13.1545ZM124.926 21.261C124.926 22.9876 124.618 24.4442 124.014 25.6177C123.411 26.7912 122.606 27.6679 121.614 28.2345C120.621 28.801 119.522 29.0843 118.342 29.0843H117.041C116.799 29.0843 116.585 28.9898 116.37 28.7739C116.169 28.5716 116.062 28.3424 116.062 28.0996V14.409C116.062 14.1662 116.156 13.9504 116.37 13.7345C116.571 13.5322 116.799 13.4243 117.041 13.4243H118.342C119.522 13.4243 120.621 13.7076 121.614 14.2741C122.606 14.8406 123.411 15.7174 124.014 16.8907C124.618 18.0777 124.926 19.548 124.926 21.261Z" fill="#07072C"/>
<path d="M142.73 22.2457C142.135 21.5577 140.986 20.9778 139.635 20.6675C141.5 19.7368 142.459 18.4285 142.459 16.7425C142.459 15.8252 142.217 15.0025 141.729 14.301C141.243 13.5997 140.554 13.0332 139.676 12.642C138.796 12.2508 137.768 12.0485 136.606 12.0485H129.32V13.0332H129.901C130.144 13.0332 130.361 13.1276 130.577 13.3434C130.78 13.5457 130.888 13.7751 130.888 14.0178V28.5312C130.888 28.7739 130.78 29.0033 130.577 29.2056C130.374 29.4079 130.144 29.5158 129.901 29.5158H129.266V30.5005H137.174C138.377 30.5005 139.499 30.2982 140.513 29.8935C141.527 29.4889 142.338 28.8954 142.92 28.113C143.514 27.3308 143.812 26.373 143.812 25.267C143.798 24.08 143.447 23.0684 142.73 22.2457ZM133.659 28.7874C133.456 28.5851 133.348 28.3559 133.348 28.113V21.5982H137.107C138.431 21.5982 139.445 21.9354 140.148 22.6098C140.851 23.2843 141.203 24.161 141.203 25.2401C141.203 25.8875 141.04 26.5215 140.744 27.1014C140.432 27.695 139.972 28.1671 139.351 28.5312C138.742 28.8954 137.985 29.0843 137.107 29.0843H134.335C134.092 29.0843 133.876 28.9898 133.659 28.7874ZM133.362 20.2089V14.4225C133.362 14.1797 133.456 13.9639 133.673 13.748C133.876 13.5457 134.105 13.4378 134.349 13.4378H136.133C137.417 13.4378 138.364 13.7616 138.959 14.382C139.553 15.0159 139.851 15.8252 139.851 16.8234C139.851 17.8485 139.566 18.6713 139.013 19.2917C138.458 19.8987 137.62 20.2089 136.512 20.2089H133.362Z" fill="#07072C"/>
<path d="M58.9586 17.8923C57.9256 17.3277 56.7719 17.0319 55.5243 17.0319C54.2767 17.0319 53.1095 17.3142 52.0899 17.8923C51.0569 18.4568 50.2385 19.2767 49.6349 20.3118C49.0312 21.3469 48.7227 22.5567 48.7227 23.9009C48.7227 25.2451 49.0312 26.4549 49.6349 27.49C50.2385 28.5251 51.0569 29.345 52.0899 29.9096C53.123 30.4741 54.2767 30.7699 55.5243 30.7699C56.7719 30.7699 57.9391 30.4876 58.9586 29.9096C59.9917 29.345 60.81 28.5251 61.4137 27.49C62.0174 26.4549 62.3259 25.2451 62.3259 23.9009C62.3259 22.5567 62.0174 21.3469 61.4137 20.3118C60.81 19.2767 59.9917 18.4568 58.9586 17.8923ZM59.9514 23.9009C59.9514 25.5543 59.549 26.8985 58.744 27.8663C57.9525 28.8342 56.8659 29.3316 55.5243 29.3316C54.1828 29.3316 53.096 28.8342 52.3046 27.8663C51.4996 26.8985 51.0972 25.5543 51.0972 23.9009C51.0972 22.2475 51.4996 20.9033 52.3046 19.9355C53.096 18.9676 54.1828 18.4702 55.5243 18.4702C56.8659 18.4702 57.9525 18.9676 58.744 19.9355C59.549 20.9033 59.9514 22.2475 59.9514 23.9009Z" fill="#07072C"/>
<path d="M106.504 17.8923C105.471 17.3277 104.317 17.0319 103.069 17.0319C101.822 17.0319 100.654 17.3142 99.6349 17.8923C98.6018 18.4568 97.7835 19.2767 97.1798 20.3118C96.5761 21.3469 96.2676 22.5567 96.2676 23.9009C96.2676 25.2451 96.5761 26.4549 97.1798 27.49C97.7835 28.5251 98.6018 29.345 99.6349 29.9096C100.668 30.4741 101.822 30.7699 103.069 30.7699C104.317 30.7699 105.484 30.4876 106.504 29.9096C107.537 29.345 108.355 28.5251 108.959 27.49C109.562 26.4549 109.871 25.2451 109.871 23.9009C109.871 22.5567 109.562 21.3469 108.959 20.3118C108.355 19.2767 107.523 18.4568 106.504 17.8923ZM107.496 23.9009C107.496 25.5543 107.094 26.8985 106.289 27.8663C105.497 28.8342 104.411 29.3316 103.069 29.3316C101.728 29.3316 100.641 28.8342 99.8495 27.8663C99.0445 26.8985 98.6421 25.5543 98.6421 23.9009C98.6421 22.234 99.0445 20.9033 99.8495 19.9355C100.641 18.9676 101.728 18.4702 103.069 18.4702C104.411 18.4702 105.497 18.9676 106.289 19.9355C107.08 20.9033 107.496 22.2475 107.496 23.9009Z" fill="#07072C"/>
<path d="M87.3307 17.0319C86.2498 17.0319 85.2636 17.2614 84.3718 17.7206C83.4801 18.1797 82.7775 18.801 82.2776 19.5977C81.7778 20.3809 81.5211 21.2588 81.5211 22.1905C81.5211 23.0277 81.7102 23.7975 82.102 24.4862C82.4803 25.148 82.9937 25.7015 83.6422 26.1607L81.7102 28.7806C81.4669 29.1046 81.44 29.5367 81.6156 29.8878C81.8047 30.2524 82.156 30.4686 82.5614 30.4686H83.1153C82.5748 30.8332 82.1425 31.2653 81.8452 31.7784C81.494 32.359 81.3184 32.9667 81.3184 33.5879C81.3184 34.7493 81.8318 35.7081 82.845 36.4239C83.8449 37.1396 85.25 37.5042 87.0199 37.5042C88.2494 37.5042 89.4248 37.3016 90.4922 36.9099C91.5731 36.5184 92.4512 35.9376 93.0997 35.1815C93.7619 34.4253 94.0996 33.507 94.0996 32.4536C94.0996 31.3463 93.6942 30.563 92.7485 29.8069C91.9379 29.1721 90.6678 28.8346 89.087 28.8346H83.6828C83.6693 28.8346 83.6557 28.821 83.6557 28.821C83.6557 28.821 83.6422 28.794 83.6557 28.7806L85.0609 26.89C85.4392 27.0655 85.7905 27.1735 86.1012 27.241C86.4254 27.3086 86.7902 27.3355 87.1955 27.3355C88.3305 27.3355 89.3574 27.106 90.249 26.6469C91.1407 26.1877 91.8569 25.5666 92.3703 24.7698C92.8836 23.9866 93.1403 23.1088 93.1403 22.1771C93.1403 21.1777 92.6539 19.3546 91.3298 18.4228C91.3298 18.4094 91.3434 18.4094 91.3434 18.4094L94.2482 18.7334V17.3965H89.6005C88.8709 17.167 88.1143 17.0319 87.3307 17.0319ZM88.952 25.4855C88.4385 25.7555 87.8846 25.9041 87.3307 25.9041C86.4255 25.9041 85.6283 25.58 84.9527 24.9454C84.2773 24.3106 83.9395 23.3789 83.9395 22.1905C83.9395 21.0022 84.2773 20.0703 84.9527 19.4357C85.6283 18.801 86.4255 18.4768 87.3307 18.4768C87.8982 18.4768 88.4385 18.6119 88.952 18.8954C89.4654 19.1656 89.8842 19.5842 90.222 20.1379C90.5462 20.6916 90.7219 21.3803 90.7219 22.1905C90.7219 23.0143 90.5597 23.7029 90.222 24.2431C89.8977 24.7968 89.4654 25.2154 88.952 25.4855ZM85.2905 30.455H88.952C89.9653 30.455 90.6138 30.6576 91.0462 31.0898C91.4785 31.5218 91.6947 32.1025 91.6947 32.7778C91.6947 33.7635 91.3029 34.5738 90.5193 35.1815C89.7356 35.7892 88.6818 36.0998 87.3847 36.0998C86.2498 36.0998 85.304 35.8432 84.6149 35.357C83.9259 34.8709 83.5746 34.1281 83.5746 33.1829C83.5746 32.5887 83.7368 32.035 84.0611 31.5489C84.3853 31.0627 84.7771 30.7116 85.2905 30.455Z" fill="#07072C"/>
<path d="M146.553 30.2752C146.286 30.1293 146.085 29.9172 145.925 29.6653C145.778 29.4003 145.697 29.1219 145.697 28.8169C145.697 28.512 145.778 28.2204 145.925 27.9685C146.072 27.7034 146.286 27.5046 146.553 27.3587C146.821 27.213 147.114 27.1334 147.448 27.1334C147.782 27.1334 148.076 27.213 148.344 27.3587C148.611 27.5046 148.811 27.7167 148.971 27.9685C149.118 28.2336 149.199 28.512 149.199 28.8169C149.199 29.1219 149.118 29.4135 148.971 29.6653C148.825 29.9305 148.611 30.1293 148.344 30.2752C148.076 30.4209 147.782 30.5005 147.448 30.5005C147.128 30.5005 146.821 30.4342 146.553 30.2752ZM148.197 30.0896C148.423 29.9703 148.585 29.7847 148.718 29.5725C148.838 29.3472 148.905 29.0953 148.905 28.8169C148.905 28.5385 148.838 28.2867 148.718 28.0613C148.597 27.836 148.423 27.6636 148.197 27.5443C147.969 27.425 147.728 27.3587 147.448 27.3587C147.168 27.3587 146.927 27.425 146.699 27.5443C146.473 27.6636 146.311 27.8492 146.178 28.0613C146.058 28.2867 145.991 28.5385 145.991 28.8169C145.991 29.0953 146.058 29.3472 146.178 29.5725C146.299 29.7979 146.473 29.9703 146.699 30.0896C146.927 30.2089 147.168 30.2752 147.448 30.2752C147.728 30.2752 147.983 30.2089 148.197 30.0896ZM146.726 29.6256V29.5063L146.753 29.4931H146.834C146.86 29.4931 146.887 29.4797 146.9 29.4665C146.927 29.44 146.927 29.4268 146.927 29.4003V28.1673C146.927 28.1408 146.913 28.1144 146.9 28.1011C146.873 28.0745 146.86 28.0745 146.834 28.0745H146.753L146.726 28.0613V27.942L146.753 27.9288H147.448C147.649 27.9288 147.796 27.9685 147.916 28.0613C148.037 28.1541 148.089 28.2735 148.089 28.4325C148.089 28.5519 148.05 28.6711 147.956 28.7507C147.863 28.8435 147.755 28.8965 147.622 28.9097L147.782 28.9628L148.089 29.4532C148.116 29.4931 148.143 29.5063 148.184 29.5063H148.263L148.277 29.5196V29.6388L148.263 29.6521H147.85L147.823 29.6388L147.394 28.9229H147.288V29.4003C147.288 29.4268 147.301 29.4532 147.315 29.4665C147.342 29.4931 147.355 29.4931 147.381 29.4931H147.462L147.489 29.5063V29.6256L147.462 29.6388H146.753L146.726 29.6256ZM147.408 28.7507C147.516 28.7507 147.608 28.7241 147.662 28.6579C147.715 28.6048 147.755 28.512 147.755 28.406C147.755 28.2999 147.728 28.2204 147.676 28.1541C147.622 28.0879 147.541 28.0613 147.448 28.0613H147.394C147.367 28.0613 147.342 28.0745 147.328 28.0879C147.301 28.1143 147.301 28.1276 147.301 28.1541V28.7507H147.408Z" fill="#07072C"/>
</svg>
