<svg width="142" height="36" viewBox="0 0 142 36" fill="none" xmlns="http://www.w3.org/2000/svg">
<path d="M56.0996 12.9584H60.5433V26.9936H56.0996V12.9584Z" fill="#07072C"/>
<mask id="mask0_4523_1556" style="mask-type:luminance" maskUnits="userSpaceOnUse" x="0" y="0" width="142" height="36">
<path d="M0.677734 0.496979H141.366V35.0687H0.677734V0.496979Z" fill="white"/>
</mask>
<g mask="url(#mask0_4523_1556)">
<path d="M61.4707 12.9584H65.7507V14.8773H65.8324C66.8684 13.3696 68.2042 12.5473 70.1398 12.5473C73.193 12.5473 74.9923 14.7403 74.9923 17.8653V26.9936H70.5487V18.7699C70.5487 17.2896 69.8127 16.2752 68.3678 16.2752C66.8958 16.2752 65.9143 17.5089 65.9143 19.2358V26.9936H61.4707V12.9584Z" fill="#07072C"/>
<path d="M60.9853 9.20347C60.9853 7.7231 59.7919 6.52319 58.3198 6.52319C56.8477 6.52319 55.6543 7.7231 55.6543 9.20347C55.6543 10.6837 56.8477 11.8836 58.3198 11.8836C59.7919 11.8836 60.9853 10.6837 60.9853 9.20347Z" fill="#07072C"/>
<path d="M106.246 12.7557C106.119 12.7442 105.974 12.7391 105.803 12.7391C104.113 12.7391 102.968 13.4792 101.987 15.1514H101.905V12.9584H97.6523V26.9935H102.096V20.6887C102.096 17.7674 103.705 16.4137 106.246 16.6499V12.7557Z" fill="#07072C"/>
<path d="M128.052 18.1392C126.28 17.8104 124.698 17.6734 124.698 16.6865C124.698 15.8092 125.544 15.3981 126.634 15.3981C127.861 15.3981 128.706 15.7819 128.869 17.0429H132.959C132.741 14.2743 130.614 12.5472 126.661 12.5472C123.363 12.5472 120.637 14.0823 120.637 17.0429C120.637 20.3322 123.226 20.9902 125.653 21.4014C127.506 21.7304 129.197 21.8675 129.197 23.1284C129.197 24.033 128.352 24.5264 127.016 24.5264C125.676 24.5264 124.789 23.9563 124.517 22.7995H120.283C120.595 25.6847 123.113 27.4321 127.043 27.4321C130.696 27.4321 133.395 25.8422 133.395 22.7721C133.395 19.181 130.505 18.5505 128.052 18.1392Z" fill="#07072C"/>
<path d="M113.138 15.727C114.583 15.727 115.619 16.7961 115.783 18.4684H110.276C110.576 16.7961 111.448 15.727 113.138 15.727ZM113.384 24.1974C111.557 24.1974 110.521 23.0187 110.248 21.1272H120.281C120.308 18.2765 119.49 15.8367 117.827 14.3017C116.628 13.2052 115.047 12.5472 113.056 12.5472C108.804 12.5472 105.887 15.7544 105.887 19.9486C105.887 24.1974 108.722 27.4048 113.329 27.4048C115.101 27.4048 116.519 26.9388 117.691 26.1164C118.918 25.2666 119.735 24.0605 120.035 22.7996H115.701C115.319 23.6767 114.556 24.1974 113.384 24.1974Z" fill="#07072C"/>
<path d="M141.221 23.684C141.015 23.6921 140.739 23.7041 140.485 23.7041C139.531 23.7041 138.931 23.4299 138.931 22.3334V15.7544H141.221V12.9584H138.931V8.51761H134.596V12.9584H133.232V15.7544H134.596V23.2929C134.596 26.3084 136.45 27.158 139.04 27.158C140.028 27.158 140.775 27.0836 141.221 26.9961V23.684Z" fill="#07072C"/>
<path d="M82.9283 23.6903C82.7511 23.6972 82.5464 23.7041 82.3553 23.7041C81.4013 23.7041 80.8014 23.4299 80.8014 22.3334V15.7544H82.9283V12.9584H80.8014V8.51761H76.4669V12.9584H75.0215V15.7544H76.4669V23.2929C76.4669 26.3084 78.3206 27.158 80.9104 27.158C81.7867 27.158 82.4728 27.0994 82.9283 27.0251V23.6903Z" fill="#07072C"/>
<path d="M92.6088 18.4684C92.4452 16.7962 91.4091 15.727 89.9643 15.727C88.2741 15.727 87.4018 16.7962 87.1019 18.4684H92.6088ZM82.7129 19.9486C82.7129 15.7545 85.6298 12.5473 89.8826 12.5473C91.8726 12.5473 93.4538 13.2052 94.6533 14.3016C96.3163 15.8368 97.134 18.2764 97.1068 21.1273H87.0748C87.3472 23.0187 88.3832 24.1974 90.2098 24.1974C91.3819 24.1974 92.1453 23.6767 92.5268 22.7995H96.8614C96.5615 24.0604 95.7438 25.2665 94.5169 26.1165C93.3448 26.9387 91.9272 27.4047 90.1552 27.4047C85.548 27.4047 82.7129 24.1974 82.7129 19.9486Z" fill="#07072C"/>
<path d="M48.3812 16.6043C50.126 16.6043 51.1073 15.5626 51.1073 14C51.1073 12.4376 50.0986 11.4782 48.3812 11.4782H44.9733V16.6043H48.3812ZM40.4746 7.39371H48.1911C50.5627 7.39371 52.3075 8.05155 53.507 9.20292C54.7611 10.3815 55.4699 12.0538 55.4699 14.0275C55.4699 17.7829 52.88 20.4421 48.8726 20.4421H44.9733V26.9935H40.4746V7.39371Z" fill="#07072C"/>
<path d="M34.3761 17.7829C34.3761 27.0998 26.8648 34.6528 17.5992 34.6528C8.33359 34.6528 0.822266 27.0998 0.822266 17.7829C0.822266 8.46579 8.33359 0.912968 17.5992 0.912968C26.8648 0.912968 34.3761 8.46579 34.3761 17.7829Z" fill="white"/>
<path d="M17.5992 0.912853C8.33359 0.912853 0.822266 8.46581 0.822266 17.7828C0.822266 24.9297 5.24437 31.0394 11.4852 33.4974C11.3386 32.1627 11.2061 30.1099 11.5434 28.6528C11.8483 27.3362 13.5107 20.2674 13.5107 20.2674C13.5107 20.2674 13.0089 19.2568 13.0089 17.7627C13.0089 15.4169 14.361 13.6657 16.0446 13.6657C17.476 13.6657 18.1673 14.7463 18.1673 16.042C18.1673 17.4895 17.2508 19.6535 16.7779 21.6589C16.3826 23.338 17.6153 24.7073 19.2623 24.7073C22.2441 24.7073 24.5362 21.5458 24.5362 16.9822C24.5362 12.943 21.6498 10.1189 17.5284 10.1189C12.7547 10.1189 9.95281 13.7192 9.95281 17.4399C9.95281 18.8899 10.5083 20.4446 11.2014 21.2899C11.3385 21.4569 11.3586 21.6032 11.3177 21.7737C11.1904 22.3065 10.9074 23.4524 10.8518 23.6869C10.7786 23.9957 10.6087 24.0613 10.2907 23.9125C8.19538 22.9317 6.88532 19.8513 6.88532 17.377C6.88532 12.0555 10.7305 7.16827 17.9705 7.16827C23.7904 7.16827 28.3132 11.3384 28.3132 16.9116C28.3132 22.7256 24.6675 27.4046 19.6075 27.4046C17.9074 27.4046 16.3092 26.5166 15.7621 25.4675C15.7621 25.4675 14.9209 28.6885 14.7169 29.4778C14.3382 30.9431 13.3157 32.7798 12.6318 33.9004C14.2015 34.3891 15.8697 34.6527 17.5992 34.6527C26.8649 34.6527 34.3762 27.0997 34.3762 17.7828C34.3762 8.46581 26.8649 0.912853 17.5992 0.912853Z" fill="#07072C"/>
</g>
</svg>
