<svg width="92" height="28" viewBox="0 0 92 28" fill="none" xmlns="http://www.w3.org/2000/svg">
<path d="M20.1119 5.74577C20.0943 5.61724 19.982 5.54594 19.8888 5.53817C19.7963 5.53041 17.9844 5.50288 17.9844 5.50288C17.9844 5.50288 16.469 4.03132 16.3193 3.88162C16.1697 3.73193 15.8773 3.77712 15.7636 3.81101C15.7622 3.81172 15.4791 3.89928 15.0025 4.04686C14.9227 3.78842 14.8054 3.47066 14.6381 3.1515C14.0986 2.12198 13.3085 1.57756 12.3538 1.57615C12.3524 1.57615 12.3517 1.57615 12.3503 1.57615C12.2839 1.57615 12.2182 1.5825 12.1519 1.58815C12.1236 1.55426 12.0954 1.52107 12.0657 1.48859C11.6498 1.04373 11.1167 0.826955 10.4776 0.84602C9.24475 0.881326 8.01683 1.77174 7.0212 3.35345C6.32072 4.46629 5.78759 5.86442 5.6365 6.94689C4.22072 7.38538 3.23074 7.69182 3.20885 7.6989C2.49426 7.92343 2.47166 7.94532 2.37845 8.61898C2.30926 9.12806 0.439453 23.5866 0.439453 23.5866L16.1089 26.2966L22.9004 24.6083C22.9004 24.6083 20.1295 5.87431 20.1119 5.74577ZM14.2179 4.28976C13.8571 4.40133 13.4468 4.52843 13.002 4.66612C12.9928 4.04191 12.9187 3.17339 12.6278 2.42278C13.5634 2.60002 14.0237 3.65849 14.2179 4.28976ZM12.1822 4.92032C11.361 5.17451 10.4649 5.45202 9.56604 5.73025C9.81882 4.76215 10.2983 3.7983 10.8872 3.16633C11.1061 2.93119 11.4125 2.66922 11.7755 2.51952C12.1165 3.23129 12.1907 4.23892 12.1822 4.92032ZM10.5023 1.66653C10.7918 1.66017 11.0355 1.72373 11.2438 1.86071C10.9105 2.03371 10.5885 2.28227 10.2863 2.60637C9.50317 3.44666 8.90298 4.75086 8.6636 6.00916C7.91723 6.24005 7.1871 6.46674 6.51488 6.67434C6.93929 4.69366 8.59934 1.72161 10.5023 1.66653Z" fill="#07072C"/>
<path d="M16.6734 3.5288C16.6734 3.52879 16.6734 3.52878 16.6734 3.52878C16.5176 3.373 16.3285 3.31312 16.1844 3.29125L15.6094 3.20403L15.6094 3.78561L15.6101 26.296L15.6101 26.9354L16.2307 26.7812L23.0214 25.0936L23.4619 24.9841L23.3955 24.5352L22.9008 24.6083M16.6734 3.5288L16.4166 3.78559L16.6094 3.78558L16.6094 4.16591C17.0921 4.63664 17.9848 5.50359 17.9848 5.50359C17.9848 5.50359 19.7967 5.53112 19.8892 5.53889C19.9817 5.54665 20.0947 5.61796 20.1124 5.74649C20.13 5.87502 22.9008 24.6083 22.9008 24.6083M16.6734 3.5288C16.7451 3.60046 17.1573 4.00192 17.5571 4.39065L18.0941 4.91271L18.1909 5.00673M16.6734 3.5288L18.1909 5.00673M22.9008 24.6083C23.3955 24.5352 23.3955 24.5351 23.3954 24.535L23.3953 24.5343L23.395 24.5318L23.3935 24.5216L23.3875 24.4814L23.3643 24.3248L23.2764 23.73L22.9622 21.6061L22.0079 15.1525L21.0502 8.67477L20.7319 6.52082L20.6413 5.90659L20.6166 5.73924L20.61 5.69375C20.6088 5.68587 20.6082 5.68151 20.6079 5.67959C20.6078 5.67862 20.6077 5.67828 20.6077 5.67844L20.6077 5.67832C20.5507 5.26428 20.1981 5.06305 19.931 5.04064L22.9008 24.6083ZM18.1909 5.00673L18.2773 5.00808C18.4487 5.01078 18.6783 5.01447 18.9108 5.0184C19.3571 5.02595 19.8626 5.0349 19.931 5.04064L18.1909 5.00673Z" fill="#07072C" stroke="white"/>
<path d="M12.3465 9.03067L11.5578 11.9815C11.5578 11.9815 10.678 11.5812 9.63505 11.6468C8.10557 11.7436 8.08932 12.7081 8.10489 12.9503C8.1882 14.2701 11.6602 14.5582 11.8551 17.6495C12.0083 20.0814 10.565 21.745 8.48548 21.8764C5.98934 22.0338 4.61523 20.5616 4.61523 20.5616L5.14413 18.3119C5.14413 18.3119 6.52739 19.3555 7.63458 19.2856C8.35767 19.2397 8.61609 18.6515 8.58996 18.2356C8.48124 16.5141 5.65393 16.6158 5.4753 13.7871C5.32488 11.4068 6.88825 8.99466 10.3376 8.77717C11.6665 8.69174 12.3465 9.03067 12.3465 9.03067Z" fill="white"/>
<path d="M31.8439 15.2097C31.063 14.786 30.6616 14.4288 30.6616 13.9379C30.6616 13.3132 31.2191 12.9118 32.0897 12.9118C33.1031 12.9118 34.0079 13.3355 34.0079 13.3355L34.7216 11.149C34.7216 11.149 34.0654 10.6357 32.1338 10.6357C29.4458 10.6357 27.5828 12.175 27.5828 14.3392C27.5828 15.5662 28.4527 16.5033 29.6132 17.1721C30.5503 17.7072 30.885 18.0868 30.885 18.6443C30.885 19.2242 30.4165 19.6927 29.5467 19.6927C28.2503 19.6927 27.026 19.0232 27.026 19.0232L26.2676 21.2097C26.2676 21.2097 27.3987 21.9682 29.3015 21.9682C32.068 21.9682 34.0535 20.6074 34.0535 18.1533C34.0528 16.8381 33.0492 15.901 31.8439 15.2097Z" fill="#07072C"/>
<path d="M42.8651 10.6139C41.5042 10.6139 40.4333 11.2611 39.6083 12.2423L39.5635 12.2199L40.7457 6.0406H37.6669L34.6777 21.7679H37.7565L38.7826 16.3919C39.1838 14.3616 40.2323 13.1128 41.2142 13.1128C41.9054 13.1128 42.1737 13.5814 42.1737 14.2509C42.1737 14.6747 42.1289 15.188 42.0399 15.6117L40.8801 21.7686H43.9591L45.1634 15.4107C45.2974 14.7412 45.3869 13.9386 45.3869 13.4028C45.3856 11.6624 44.4711 10.6139 42.8651 10.6139Z" fill="#07072C"/>
<path d="M52.3462 10.6139C48.6426 10.6139 46.1895 13.9603 46.1895 17.6855C46.1895 20.0723 47.6614 21.9906 50.428 21.9906C54.0642 21.9906 56.5182 18.7339 56.5182 14.9191C56.5182 12.7108 55.224 10.6139 52.3462 10.6139ZM50.8293 19.6269C49.7807 19.6269 49.3344 18.7346 49.3344 17.6189C49.3344 15.8568 50.2494 12.9791 51.9225 12.9791C53.0156 12.9791 53.3719 13.9161 53.3719 14.8308C53.3719 16.7267 52.4582 19.6269 50.8293 19.6269Z" fill="#07072C"/>
<path d="M64.392 10.6139C62.3139 10.6139 61.1346 12.4433 61.1346 12.4433H61.0905L61.2691 10.7925H58.5474C58.4138 11.9082 58.1678 13.6031 57.923 14.8749L55.7812 26.1402H58.8601L59.7072 21.5893H59.7746C59.7746 21.5893 60.4063 21.9906 61.5817 21.9906C65.1954 21.9906 67.5599 18.2878 67.5599 14.5395C67.5599 12.4657 66.6449 10.6139 64.392 10.6139ZM61.4472 19.671C60.6481 19.671 60.1751 19.2249 60.1751 19.2249L60.6884 16.3471C61.0455 14.4288 62.0492 13.157 63.1203 13.157C64.0573 13.157 64.3471 14.0268 64.3471 14.8526C64.3471 16.838 63.1648 19.671 61.4472 19.671Z" fill="#07072C"/>
<path d="M71.9555 6.19679C70.9743 6.19679 70.1934 6.9777 70.1934 7.9813C70.1934 8.896 70.7732 9.52071 71.6433 9.52071H71.6878C72.6473 9.52071 73.4724 8.87356 73.4949 7.7362C73.4949 6.8439 72.8925 6.19679 71.9555 6.19679Z" fill="#07072C"/>
<path d="M67.6504 21.7679H70.7284L72.826 10.8598H69.7247L67.6504 21.7679Z" fill="#07072C"/>
<path d="M80.6566 10.8374H78.5148L78.626 10.324C78.8046 9.27555 79.4294 8.33846 80.4555 8.33846C81.0032 8.33846 81.4367 8.49465 81.4367 8.49465L82.0391 6.08543C82.0391 6.08543 81.5037 5.81789 80.3656 5.81789C79.2725 5.81789 78.1802 6.13022 77.3542 6.84389C76.3056 7.73619 75.8148 9.02973 75.5696 10.324L75.481 10.8374H74.0527L73.6065 13.1577H75.0347L73.4062 21.7686H76.4851L78.1136 13.1577H80.2328L80.6566 10.8374Z" fill="#07072C"/>
<path d="M88.0621 10.8598C88.0621 10.8598 86.1375 15.7084 85.2734 18.3551H85.2285C85.1699 17.5027 84.47 10.8598 84.47 10.8598H81.2351L83.0875 20.8756C83.1325 21.0984 83.11 21.2328 83.0205 21.389C82.6629 22.0803 82.061 22.7498 81.3471 23.2408C80.7672 23.6645 80.1203 23.932 79.6074 24.1106L80.455 26.7208C81.0798 26.5871 82.3732 26.0737 83.4663 25.0477C84.8721 23.7317 86.1655 21.7014 87.5038 18.9349L91.2741 10.8591H88.0621V10.8598Z" fill="#07072C"/>
</svg>
