<svg width="81" height="19" viewBox="0 0 81 19" fill="none" xmlns="http://www.w3.org/2000/svg">
<path d="M17.2361 18.6803H2.87962C1.93063 18.6803 1.03032 18.182 0.592328 17.3312C0.0935036 16.3587 0.276001 15.1919 1.04248 14.426L11.0312 4.44678H3.87727C1.9063 4.44678 0.3125 2.85447 0.3125 0.885346H13.5374C14.4864 0.885346 15.3867 1.3837 15.8247 2.23456C16.3236 3.20696 16.1411 4.37384 15.3746 5.13962L5.38591 15.1189H13.6713C15.6422 15.1189 17.2361 16.7112 17.2361 18.6803ZM74.0535 0.617935C71.9975 0.617935 70.1478 1.50525 68.8824 2.9274C67.6053 1.50525 65.7558 0.617935 63.7119 0.617935C59.8915 0.617935 56.777 3.87549 56.777 7.68001V18.6803C58.7479 18.6803 60.3417 17.088 60.3417 15.1189V7.64356C60.3417 5.80814 61.7652 4.2523 63.5901 4.17937C65.5126 4.10643 67.1063 5.65011 67.1063 7.55847V15.1189C67.1063 17.088 68.7001 18.6803 70.671 18.6803V7.64356C70.671 5.80814 72.0946 4.2523 73.9193 4.17937C75.8417 4.10643 77.4357 5.65011 77.4357 7.55847V15.1189C77.4357 17.088 79.0297 18.6803 81 18.6803V7.68001C80.9879 3.87549 77.8735 0.617935 74.0535 0.617935ZM35.218 9.78282C35.218 14.8394 31.1058 18.9478 26.0445 18.9478C20.9833 18.9478 16.8711 14.8394 16.8711 9.78282C16.8711 4.72633 20.9955 0.617935 26.0445 0.617935C31.0937 0.617935 35.218 4.72633 35.218 9.78282ZM31.6533 9.78282C31.6533 6.69547 29.1348 4.17937 26.0445 4.17937C22.9543 4.17937 20.4358 6.69547 20.4358 9.78282C20.4358 12.8703 22.9543 15.3863 26.0445 15.3863C29.1348 15.3863 31.6533 12.8703 31.6533 9.78282ZM54.9885 9.78282C54.9885 14.8394 50.8764 18.9478 45.8152 18.9478C40.7536 18.9478 36.6415 14.8394 36.6415 9.78282C36.6415 4.72633 40.7662 0.617935 45.8152 0.617935C50.8639 0.617935 54.9885 4.72633 54.9885 9.78282ZM51.4238 9.78282C51.4238 6.69547 48.9055 4.17937 45.8152 4.17937C42.7249 4.17937 40.2063 6.69547 40.2063 9.78282C40.2063 12.8703 42.7249 15.3863 45.8152 15.3863C48.9055 15.3863 51.4238 12.8703 51.4238 9.78282Z" fill="#07072C"/>
</svg>
