<?xml version="1.0" encoding="UTF-8"?>
<svg id="Layer_2" data-name="Layer 2" xmlns="http://www.w3.org/2000/svg" viewBox="0 0 192 192">
  <defs>
    <style>
      .cls-1 {
        fill: #fff;
      }

      .cls-1, .cls-2 {
        stroke-width: 0px;
      }

      .cls-2 {
        fill: #3a7afe;
      }
    </style>
  </defs>
  <g id="Layer_1-2" data-name="Layer 1">
    <rect class="cls-2" width="192" height="192" rx="60.54" ry="60.54"/>
    <g>
      <polygon class="cls-1" points="47.02 39.36 47.02 76.61 79.37 57.99 47.02 39.36"/>
      <path class="cls-1" d="M112.01,95.93c10.98-6.33,21.96-12.66,32.94-18.99,0-12.53.02-25.05.03-37.58-32.65,18.9-65.3,37.79-97.96,56.69v37.7c10.75,5.96,21.5,11.93,32.24,17.89.02-12.29.05-24.58.07-36.87.03-.01.05-.03.08-.04l65.57,37.91c-.01-12.66-.02-25.31-.04-37.97-10.98-6.25-21.96-12.49-32.93-18.74Z"/>
    </g>
  </g>
</svg>