<?xml version="1.0" encoding="UTF-8"?>
<svg id="Layer_2" data-name="Layer 2" xmlns="http://www.w3.org/2000/svg" viewBox="0 0 32 32">
  <defs>
    <style>
      .cls-1 {
        fill: #fff;
      }

      .cls-1, .cls-2 {
        stroke-width: 0px;
      }

      .cls-2 {
        fill: #3a7afe;
      }
    </style>
  </defs>
  <g id="Layer_1-2" data-name="Layer 1">
    <rect class="cls-2" x="0" y="0" width="32" height="32" rx="11.5" ry="11.5"/>
    <g>
      <polygon class="cls-1" points="7.38 6.03 7.38 12.59 13.07 9.31 7.38 6.03"/>
      <path class="cls-1" d="M18.82,15.99c1.93-1.11,3.87-2.23,5.8-3.34,0-2.2,0-4.41,0-6.61-5.75,3.33-11.49,6.65-17.24,9.98v6.63c1.89,1.05,3.78,2.1,5.68,3.15,0-2.16,0-4.33.01-6.49,0,0,0,0,.01,0,3.85,2.22,7.69,4.45,11.54,6.67,0-2.23,0-4.46,0-6.68-1.93-1.1-3.86-2.2-5.8-3.3Z"/>
    </g>
  </g>
</svg>