<?xml version="1.0" encoding="UTF-8"?>
<svg id="Layer_2" data-name="Layer 2" xmlns="http://www.w3.org/2000/svg" viewBox="0 0 512 512">
  <defs>
    <style>
      .cls-1 {
        fill: #fff;
      }

      .cls-1, .cls-2 {
        stroke-width: 0px;
      }

      .cls-2 {
        fill: #3a7afe;
      }
    </style>
  </defs>
  <g id="Layer_1-2" data-name="Layer 1">
    <rect class="cls-2" x="0" y="0" width="512" height="512" rx="158.79" ry="158.79"/>
    <g>
      <polygon class="cls-1" points="118.07 96.5 118.07 201.4 209.17 148.95 118.07 96.5"/>
      <path class="cls-1" d="M301.09,255.81c30.92-17.83,61.85-35.65,92.77-53.48.02-35.28.05-70.55.07-105.83-91.95,53.22-183.91,106.43-275.86,159.65v106.16c30.27,16.79,60.54,33.59,90.8,50.38.07-34.61.13-69.23.2-103.84.07-.04.14-.08.21-.12,61.55,35.59,123.1,71.18,184.65,106.77-.03-35.64-.07-71.28-.1-106.92-30.92-17.59-61.83-35.18-92.75-52.77Z"/>
    </g>
  </g>
</svg>