<?xml version="1.0" encoding="UTF-8"?>
<svg id="Layer_2" data-name="Layer 2" xmlns="http://www.w3.org/2000/svg" viewBox="0 0 279.21 279.21">
  <defs>
    <style>
      .cls-1 {
        fill: #fff;
        stroke-width: 0px;
      }
    </style>
  </defs>
  <g id="Layer_1-2" data-name="Layer 1">
    <g>
      <path class="cls-1" d="M220.15,202.42l-30.49-30.49c4.06-5.63,12.23-18.71,11.16-35.47-1.74-27.28-27.33-54.32-59.61-53.73-32.77.59-57.01,29.36-57.76,57.76-.59,22.59,13.84,38.53,17.76,42.61,6.23,3.46,13.63,1.88,17.11-2.94,2.51-3.48,2.74-8.33.8-12.58h0c-2.02-1.8-13.05-11.91-12.86-27.08.21-17.04,14.52-34.95,34.95-34.95s34.6,18.42,34.95,34.95c.24,11.63-6.26,20.18-8.83,23.21-.45.35-5.2,4.25-4.75,10.37.29,4.01,2.64,6.62,3.4,7.39l27.9,27.9c-8.47,6.38-28.03,19.11-53.77,18.48-40.79-1-87.49-35.3-87.49-87.49,0-51.67,45.78-86.7,87.49-87.49,31.24-.59,53.72,18.16,60.66,24.45,0,0,0,0,0-.01,5.3,6.4,14.78,6.31,19.46,1.14,4.52-5,3.9-14.02-2.5-18.84-8.89-8.1-37.63-32.18-77.61-31.51-53.59.91-112.27,46.04-112.27,112.26s58.37,111.34,112.27,112.27c42.34.73,72.25-26.1,80.38-33.9-.01-.01-.02-.02-.03-.04,4.26-4.6,4.16-11.79-.32-16.26Z"/>
      <path class="cls-1" d="M139.61,0C62.5,0,0,62.5,0,139.61s62.5,139.61,139.61,139.61,139.61-62.5,139.61-139.61S216.71,0,139.61,0ZM139.61,277.1C63.67,277.1,2.12,215.54,2.12,139.61S63.67,2.12,139.61,2.12s137.49,61.56,137.49,137.49-61.56,137.49-137.49,137.49Z"/>
    </g>
  </g>
</svg>