<svg xmlns="http://www.w3.org/2000/svg" xmlns:xlink="http://www.w3.org/1999/xlink" viewBox="0 0 335.76 240.24"><defs><style>.cls-1{fill:url(#linear-gradient);}</style><linearGradient id="linear-gradient" y1="120.12" x2="335.76" y2="120.12" gradientUnits="userSpaceOnUse"><stop offset="0" stop-color="#0e303f"/><stop offset="0.44" stop-color="#0c2a37"/><stop offset="0.68" stop-color="#0b2530"/></linearGradient></defs><g id="Layer_2" data-name="Layer 2"><g id="Layer_1-2" data-name="Layer 1"><path class="cls-1" d="M52.55,240.24q71.39-206.4,90.94-201.61,18.66,4.57-9.91,201.61h48.27Q273.26,36,296.37,43.43q21.48,6.93-16.09,196.81h43.11C336.53,140.8,347,12,312.19.78,298.28-3.7,266.45,7.24,189.81,140.44A420.82,420.82,0,0,0,182,86.78c-9.11-43-17-80.42-34.17-86C114.77-10,53.45,99.88,47.41,110.84l.69-108L1.32,3.53,0,240.24Z"/></g></g></svg>