<?xml version="1.0" encoding="UTF-8"?>
<svg id="Layer_2" data-name="Layer 2" xmlns="http://www.w3.org/2000/svg" viewBox="0 0 97.96 113.27">
  <defs>
    <style>
      .cls-1 {
        fill: #fff;
        stroke-width: 0px;
      }
    </style>
  </defs>
  <g id="Layer_1-2" data-name="Layer 1">
    <g>
      <polygon class="cls-1" points="0 0 0 37.25 32.35 18.63 0 0"/>
      <path class="cls-1" d="M64.99,56.57c10.98-6.33,21.96-12.66,32.94-18.99,0-12.53.02-25.05.03-37.58C65.3,18.9,32.65,37.79,0,56.69v37.7c10.75,5.96,21.5,11.93,32.24,17.89.02-12.29.05-24.58.07-36.87.03-.01.05-.03.08-.04l65.57,37.91c-.01-12.66-.02-25.31-.04-37.97-10.98-6.25-21.96-12.49-32.93-18.74Z"/>
    </g>
  </g>
</svg>