<svg xmlns="http://www.w3.org/2000/svg" xmlns:xlink="http://www.w3.org/1999/xlink" viewBox="0 0 755.6 180.28"><defs><style>.cls-1{fill:url(#linear-gradient);}.cls-2{fill:url(#linear-gradient-2);}.cls-3{fill:url(#linear-gradient-3);}.cls-4{fill:url(#linear-gradient-4);}.cls-5{fill:url(#linear-gradient-5);}</style><linearGradient id="linear-gradient" y1="60.85" x2="202.04" y2="60.85" gradientUnits="userSpaceOnUse"><stop offset="0" stop-color="#0e303f"/><stop offset="0.44" stop-color="#0c2a37"/><stop offset="0.68" stop-color="#0b2530"/></linearGradient><linearGradient id="linear-gradient-2" x1="220.56" y1="61.6" x2="343.77" y2="61.6" xlink:href="#linear-gradient"/><linearGradient id="linear-gradient-3" x1="353.03" y1="90.9" x2="476.02" y2="90.9" xlink:href="#linear-gradient"/><linearGradient id="linear-gradient-4" x1="490.23" y1="61.6" x2="620.54" y2="61.6" xlink:href="#linear-gradient"/><linearGradient id="linear-gradient-5" x1="636.27" y1="60.85" x2="755.6" y2="60.85" xlink:href="#linear-gradient"/></defs><g id="Layer_2" data-name="Layer 2"><g id="Layer_1-2" data-name="Layer 1"><path class="cls-1" d="M0,121.7V1.51H36.4V27.14a35.41,35.41,0,0,1,8.4-14.43A42.15,42.15,0,0,1,58.16,3.34,37.81,37.81,0,0,1,73.66,0Q90,0,100.48,9.58T113.3,35.75q2.37-12.06,8.61-19.92A40.52,40.52,0,0,1,136.88,4,44,44,0,0,1,155.3,0q22.39,0,34.57,13.57T202,51.26V121.7H165.85V56.86q0-12.27-6.35-19.38t-16.91-7.11a20.26,20.26,0,0,0-16.91,8.29Q119.32,47,119.33,59V121.7H82.93V57.08q0-12.49-6.36-19.6T59.88,30.37A20.3,20.3,0,0,0,47.6,34.14a25.8,25.8,0,0,0-8.18,10.34A34.31,34.31,0,0,0,36.4,59V121.7Z"/><path class="cls-2" d="M286.47,123.21a75.87,75.87,0,0,1-25-4.1,66,66,0,0,1-21.11-11.84A54.63,54.63,0,0,1,225.84,88.2a60.1,60.1,0,0,1-5.28-25.74,62.58,62.58,0,0,1,5-25.2A59.9,59.9,0,0,1,239.3,17.45,62.28,62.28,0,0,1,259.66,4.52,66.39,66.39,0,0,1,284.1,0a72,72,0,0,1,20,2.8A57.54,57.54,0,0,1,321.47,11a41,41,0,0,1,12,12.7,31.72,31.72,0,0,1,4.31,16.37q0,11.2-6.36,18.85A43.25,43.25,0,0,1,314.58,71a90.08,90.08,0,0,1-22.83,6.14,157.23,157.23,0,0,1-24.45,1.51c-1.15,0-2.37,0-3.66-.11s-2.51-.11-3.66-.11a11.85,11.85,0,0,1-2.59-.21A19.24,19.24,0,0,0,263,87a29.49,29.49,0,0,0,10.66,6.35,39.11,39.11,0,0,0,13.24,2.26A38.21,38.21,0,0,0,300,93.37a49.63,49.63,0,0,0,11.53-5.92,42.72,42.72,0,0,0,8.93-8.19l23.27,18.31A53.72,53.72,0,0,1,328,112a75,75,0,0,1-19.92,8.41A85.17,85.17,0,0,1,286.47,123.21Zm-19-68.5q6,0,12.17-.54a51.05,51.05,0,0,0,11.41-2.26,24.59,24.59,0,0,0,8.62-4.63,9.44,9.44,0,0,0,3.34-7.43,9.05,9.05,0,0,0-2.69-6.46,17.62,17.62,0,0,0-6.9-4.31,27,27,0,0,0-9.15-1.51,27.64,27.64,0,0,0-15.08,4.09,28.73,28.73,0,0,0-9.91,10.23,29.2,29.2,0,0,0-3.87,12.39c1.43.14,3.23.25,5.38.32S265.22,54.71,267.52,54.71Z"/><path class="cls-3" d="M440.05,117.6V1.51h36V117.6a77.15,77.15,0,0,1-3.56,23.48,57.33,57.33,0,0,1-11.2,20.14,52.12,52.12,0,0,1-19.49,14q-11.85,5.06-28.43,5.06a72.84,72.84,0,0,1-26.6-4.73,59.33,59.33,0,0,1-21-13.68A51.5,51.5,0,0,1,353,139.79L384.47,129a35.66,35.66,0,0,0,10.24,14.32q6.78,5.72,17.12,5.71,13.79,0,21-8.61T440.05,117.6Zm4.3-51.69q-.21,16.59-3.77,27.46t-9.26,16.8a31.79,31.79,0,0,1-12.6,8.3,42.18,42.18,0,0,1-13.78,2.37q-14,0-24.67-6.36A42.35,42.35,0,0,1,363.8,96.39Q358,84.65,358,68.71V1.51h35.76V64q0,12.5,6.24,19.28T416.78,90a21,21,0,0,0,12.5-3.66,23.57,23.57,0,0,0,8-10.12,36.63,36.63,0,0,0,2.8-14.65Z"/><path class="cls-4" d="M529,1.51l26.71,86.37L581.77,1.51h38.77L577.9,121.7H533.09L490.23,1.51Z"/><path class="cls-5" d="M636.27,121.7V1.51h36.4V27.14A36.11,36.11,0,0,1,681,12.71a40.54,40.54,0,0,1,13.36-9.37,39.55,39.55,0,0,1,16-3.34q13.78,0,23.91,6.25A41.88,41.88,0,0,1,750,23.91q5.6,11.42,5.6,27.35V121.7H719.19V56.86q0-12.48-6.24-19.49t-16.8-7a21.09,21.09,0,0,0-12.6,3.77,23.87,23.87,0,0,0-8.08,10.23A36.46,36.46,0,0,0,672.67,59V121.7Z"/></g></g></svg>